<?xml version="1.0" standalone="no"?>
<!DOCTYPE svg PUBLIC "-//W3C//DTD SVG 20010904//EN"
 "http://www.w3.org/TR/2001/REC-SVG-20010904/DTD/svg10.dtd">
<svg version="1.0" xmlns="http://www.w3.org/2000/svg"
 width="512.000000pt" height="512.000000pt" viewBox="0 0 512.000000 512.000000"
 preserveAspectRatio="xMidYMid meet">

<g transform="translate(0.000000,512.000000) scale(0.100000,-0.100000)"
fill="#000000" stroke="none">
<path d="M2330 3894 c-107 -13 -241 -38 -317 -60 -80 -24 -92 -25 -151 -13
-39 7 -105 10 -166 7 -121 -7 -253 -47 -358 -109 -73 -43 -79 -51 -196 -246
-246 -411 -266 -456 -266 -584 0 -67 5 -86 37 -154 43 -89 127 -179 224 -239
l60 -37 12 -82 c46 -296 241 -653 483 -882 73 -70 144 -114 268 -168 253 -110
527 -82 719 75 30 23 59 47 66 52 8 6 41 -8 98 -43 293 -177 511 -197 647 -61
73 73 119 213 120 367 0 60 1 63 28 68 177 37 258 74 336 151 129 126 165 329
105 585 -21 89 -21 91 -2 162 13 51 18 107 17 192 0 104 -4 130 -28 200 -83
240 -282 454 -580 622 -105 59 -387 136 -641 174 -123 19 -436 33 -515 23z
m550 -124 c254 -44 483 -111 584 -170 275 -161 466 -376 520 -587 18 -70 22
-248 5 -258 -6 -4 -116 63 -245 149 -133 88 -244 156 -257 156 -29 0 -47 -18
-47 -47 0 -18 46 -53 250 -190 l250 -167 25 -80 c36 -121 48 -208 43 -315 -4
-79 -10 -107 -35 -161 -50 -107 -137 -172 -274 -205 -103 -24 -111 -22 -148
34 -133 207 -332 382 -467 412 -60 14 -84 4 -84 -35 0 -32 11 -42 68 -60 29
-10 79 -36 112 -57 74 -50 215 -199 280 -297 l50 -74 0 -101 c0 -158 -36 -259
-113 -321 -70 -56 -217 -48 -364 19 -39 18 -91 46 -115 62 -197 134 -513 248
-796 287 -146 21 -149 20 -168 -9 -15 -22 -15 -27 -1 -48 13 -20 28 -24 123
-35 165 -18 381 -76 547 -146 l37 -16 -32 -29 c-94 -82 -219 -125 -358 -125
-120 1 -193 20 -336 90 -128 62 -173 99 -281 227 -180 215 -291 436 -344 690
-29 133 -31 361 -5 487 43 204 135 425 229 547 177 229 408 350 762 397 17 2
127 3 245 1 165 -2 244 -8 340 -25z m-1136 -48 c-12 -9 -49 -37 -83 -61 -69
-50 -172 -155 -221 -225 -147 -215 -250 -529 -250 -768 0 -42 -4 -79 -9 -82
-16 -10 -151 125 -178 178 -36 72 -42 163 -14 236 29 77 272 500 338 588 52
69 260 146 408 150 30 1 30 1 9 -16z"/>
</g>
</svg>
